HIERARCHY
ROOT Hips
{
	OFFSET 0.000000 0.000000 0.000000
	CHANNELS 6 Xposition Yposition Zposition Yrotation Xrotation Zrotation
	JOINT Chest
	{
		OFFSET 0.000000 -0.009281 11.569106
		CHANNELS 3 Yrotation Xrotation Zrotation
		JOINT Chest2
		{
			OFFSET -0.000000 0.016865 9.269641
			CHANNELS 3 Yrotation Xrotation Zrotation
			JOINT Chest3
			{
				OFFSET -0.000000 0.000001 8.374491
				CHANNELS 3 Yrotation Xrotation Zrotation
				JOINT Chest4
				{
					OFFSET -0.000000 0.000001 8.374493
					CHANNELS 3 Yrotation Xrotation Zrotation
					JOINT Neck
					{
						OFFSET -0.000000 0.000002 12.152554
						CHANNELS 3 Yrotation Xrotation Zrotation
						JOINT Head
						{
							OFFSET -0.000000 0.040101 7.802319
							CHANNELS 3 Yrotation Xrotation Zrotation
							End Site
							{
								OFFSET -0.000000 0.020947 14.853096
							}
						}
					}
					JOINT RightCollar
					{
						OFFSET 2.894404 0.000001 6.791374
						CHANNELS 3 Yrotation Xrotation Zrotation
						JOINT RightShoulder
						{
							OFFSET 13.574684 0.000001 0.000000
							CHANNELS 3 Yrotation Xrotation Zrotation
							JOINT RightElbow
							{
								OFFSET 23.923903 0.000002 0.000000
								CHANNELS 3 Yrotation Xrotation Zrotation
								JOINT RightWrist
								{
									OFFSET 19.846718 0.012767 0.000000
									CHANNELS 3 Yrotation Xrotation Zrotation
									End Site
									{
										OFFSET 14.973145 0.000001 0.000000
									}
								}
							}
						}
					}
					JOINT LeftCollar
					{
						OFFSET -2.894404 0.000001 6.791374
						CHANNELS 3 Yrotation Xrotation Zrotation
						JOINT LeftShoulder
						{
							OFFSET -13.574684 -0.000001 0.000000
							CHANNELS 3 Yrotation Xrotation Zrotation
							JOINT LeftElbow
							{
								OFFSET -23.923903 -0.000002 0.000000
								CHANNELS 3 Yrotation Xrotation Zrotation
								JOINT LeftWrist
								{
									OFFSET -19.846718 0.012763 0.000000
									CHANNELS 3 Yrotation Xrotation Zrotation
									End Site
									{
										OFFSET -14.973145 -0.000001 0.000000
									}
								}
							}
						}
					}
				}
			}
		}
	}
	JOINT RightHip
	{
		OFFSET 9.469263 0.004643 0.045487
		CHANNELS 3 Yrotation Xrotation Zrotation
		JOINT RightKnee
		{
			OFFSET 0.000000 0.002661 -40.478676
			CHANNELS 3 Yrotation Xrotation Zrotation
			JOINT RightAnkle
			{
				OFFSET 0.000000 0.049106 -35.224068
				CHANNELS 3 Yrotation Xrotation Zrotation
				JOINT RightToe
				{
					OFFSET -0.000001 12.539529 -6.151390
					CHANNELS 3 Yrotation Xrotation Zrotation
					End Site
					{
						OFFSET -0.000001 5.044994 -1.291870
					}
				}
			}
		}
	}
	JOINT LeftHip
	{
		OFFSET -9.469263 0.004641 0.045487
		CHANNELS 3 Yrotation Xrotation Zrotation
		JOINT LeftKnee
		{
			OFFSET 0.000000 0.002661 -40.478676
			CHANNELS 3 Yrotation Xrotation Zrotation
			JOINT LeftAnkle
			{
				OFFSET 0.000000 0.049106 -35.224068
				CHANNELS 3 Yrotation Xrotation Zrotation
				JOINT LeftToe
				{
					OFFSET -0.000001 12.539529 -6.151390
					CHANNELS 3 Yrotation Xrotation Zrotation
					End Site
					{
						OFFSET -0.000001 5.044994 -1.291870
					}
				}
			}
		}
	}
}
MOTION
Frames: 12
Frame Time: 0.016667
9.248602 7.557451 83.145012 -5.087744 -1.914716 -109.307875 -0.157705 -2.528302 0.806881 -0.070254 -1.122869 0.351186 -0.070254 -1.122869 0.351184 -0.052044 -0.842193 0.263252 0.823808 -23.156015 -1.948914 0.967271 -6.818335 -3.290959 11.345854 2.430865 -1.861300 69.475400 25.439313 1.233159 9.684334 3.021805 14.209790 -66.335309 40.010070 22.364172 -9.701478 2.298160 1.716381 -71.042095 17.046583 -1.840383 -6.860147 1.283070 -7.307523 58.092494 33.658773 -20.918269 -0.651360 -4.597877 -2.514597 1.677277 -4.463053 -6.262760 -0.930390 2.951870 1.872801 0.003994 -0.013751 -0.005926 -0.785583 -5.860733 -0.299455 0.185176 -2.663297 2.134634 1.057654 3.161887 1.530807 0.000279 -0.018080 0.006525 
9.252356 7.551943 83.147575 -5.096537 -1.913766 -109.313817 -0.158837 -2.479955 0.821563 -0.071380 -1.101609 0.357872 -0.071380 -1.101609 0.357869 -0.052888 -0.826250 0.268268 0.831616 -23.049332 -1.978667 0.971273 -6.620333 -3.342630 11.405460 2.576373 -1.645105 67.424895 22.898344 -0.072979 10.931392 1.119322 12.930140 -66.375539 39.504042 19.823972 -9.776030 2.413048 1.402127 -69.449650 15.544609 -0.582490 -7.700262 -2.185691 -6.756271 56.774670 33.173010 -17.618101 -0.650798 -4.617196 -2.492992 1.671544 -4.443474 -6.280532 -0.926678 2.939018 1.888013 0.001041 -0.010572 -0.004853 -0.788968 -5.874799 -0.288485 0.189174 -2.660464 2.133339 1.049822 3.162010 1.527306 0.002834 -0.014479 0.005271 
9.259017 7.543696 83.149712 -5.103931 -1.910532 -109.313387 -0.173511 -2.442142 0.836890 -0.078583 -1.084156 0.365650 -0.078583 -1.084156 0.365651 -0.058287 -0.813165 0.274092 0.852222 -22.920189 -2.013087 0.996555 -6.380434 -3.399361 11.463457 2.539096 -1.426629 65.526198 20.002520 -1.301336 12.372848 -0.568436 12.441537 -65.952996 38.784860 17.398018 -9.820900 2.548787 1.117838 -67.801512 13.824855 0.697064 -8.946709 -5.009738 -6.730262 55.307409 32.539411 -14.968197 -0.643800 -4.643868 -2.483690 1.657589 -4.412057 -6.302288 -0.923299 2.926022 1.899466 -0.000130 -0.009927 -0.003560 -0.791796 -5.889076 -0.298005 0.194390 -2.656075 2.136724 1.038761 3.163042 1.526337 0.005037 -0.011733 0.004469 
9.265070 7.535072 83.151009 -5.103217 -1.902678 -109.308175 -0.190658 -2.416294 0.854244 -0.086374 -1.072576 0.373910 -0.086374 -1.072576 0.373915 -0.064123 -0.804485 0.280275 0.878783 -22.764315 -2.056453 1.029518 -6.090867 -3.470665 11.532417 2.478314 -1.201949 63.680859 17.111103 -2.471843 14.090390 -2.104920 12.523290 -65.139890 37.930974 15.239914 -9.871243 2.715894 0.818020 -66.063905 12.091129 2.000878 -10.559811 -7.406381 -7.042617 54.003212 32.185439 -12.895532 -0.645550 -4.657728 -2.482480 1.656509 -4.389971 -6.317605 -0.925481 2.919270 1.907341 -0.000945 -0.010097 -0.003707 -0.793582 -5.895004 -0.316573 0.195141 -2.648880 2.143575 1.029447 3.164667 1.523547 0.007166 -0.011406 0.003896 
9.272474 7.524817 83.152069 -5.104105 -1.899736 -109.297247 -0.196108 -2.402828 0.856038 -0.088630 -1.066279 0.374798 -0.088630 -1.066279 0.374799 -0.065816 -0.799764 0.280936 0.893333 -22.594457 -2.094367 1.041882 -5.775515 -3.535441 11.548918 2.490050 -1.042332 61.730594 14.528454 -3.510981 16.205003 -3.788817 12.710810 -63.917375 37.017091 13.445117 -9.904097 2.899393 0.587830 -64.301402 10.335388 3.133299 -12.470408 -9.435856 -7.402086 52.796348 32.046677 -11.423750 -0.640644 -4.676505 -2.485617 1.655321 -4.367804 -6.326237 -0.929365 2.913020 1.901788 -0.001900 -0.009246 -0.004331 -0.787946 -5.905461 -0.339089 0.192435 -2.640604 2.154221 1.019361 3.168511 1.516860 0.009989 -0.012705 0.004433 
9.279538 7.513602 83.153633 -5.110678 -1.901592 -109.292746 -0.198004 -2.392844 0.847418 -0.089045 -1.062217 0.371078 -0.089045 -1.062217 0.371075 -0.066136 -0.796717 0.278143 0.894724 -22.428799 -2.122369 1.033171 -5.468161 -3.585969 11.523120 2.564747 -0.970398 59.698428 12.194605 -4.342909 18.523943 -5.772562 12.813701 -62.333365 36.132496 11.815565 -9.894966 3.130344 0.406067 -62.456097 8.753549 4.152975 -14.613569 -11.374115 -7.686597 51.246722 31.989908 -10.526535 -0.631827 -4.696511 -2.479939 1.651725 -4.355358 -6.331468 -0.931935 2.908909 1.878942 -0.003208 -0.006823 -0.005048 -0.785545 -5.926001 -0.339069 0.198437 -2.628574 2.144628 1.006759 3.169964 1.540415 0.012292 -0.012459 0.005187 
9.284522 7.503390 83.155479 -5.126179 -1.905822 -109.297459 -0.200565 -2.383424 0.843648 -0.090002 -1.058863 0.369260 -0.090002 -1.058863 0.369261 -0.066860 -0.794202 0.276781 0.887692 -22.270033 -2.149376 1.009564 -5.173803 -3.637106 11.462770 2.662709 -0.967185 57.734619 9.803159 -5.012546 20.919415 -7.617309 13.093668 -60.519642 35.166841 10.191346 -9.827484 3.272775 0.252485 -60.661109 7.369906 4.973258 -16.829193 -13.317856 -7.916271 49.341324 32.022871 -9.988630 -0.630719 -4.717393 -2.473147 1.654125 -4.355121 -6.326792 -0.934175 2.907866 1.882388 -0.005084 -0.004105 -0.005098 -0.783797 -5.953119 -0.324407 0.207718 -2.618564 2.132962 0.990895 3.170891 1.542536 0.013350 -0.012088 0.005459 
9.288722 7.494488 83.156769 -5.148502 -1.910643 -109.309091 -0.210182 -2.385206 0.851600 -0.094434 -1.059859 0.373163 -0.094434 -1.059859 0.373162 -0.070177 -0.794952 0.279698 0.880922 -22.109674 -2.180686 0.985071 -4.876528 -3.696068 11.400646 2.695502 -0.955690 55.887678 7.520674 -5.641422 23.373695 -9.097935 13.768657 -58.363427 34.061723 8.624974 -9.734941 3.407242 0.057511 -58.829198 6.182262 5.709144 -19.126266 -15.227225 -8.156672 47.273570 31.983990 -9.537441 -0.630536 -4.745457 -2.464851 1.654253 -4.350581 -6.319311 -0.936242 2.905366 1.896313 -0.006489 -0.003807 -0.004769 -0.787422 -5.984053 -0.315817 0.217857 -2.615189 2.138097 0.977774 3.176184 1.535429 0.012842 -0.011940 0.005103 
9.292791 7.487741 83.157364 -5.178706 -1.912461 -109.322082 -0.228311 -2.397938 0.870457 -0.100455 -1.065733 0.382546 -0.100455 -1.065734 0.382544 -0.074672 -0.799363 0.286725 0.878116 -21.939146 -2.216804 0.966024 -4.560373 -3.762777 11.333730 2.799975 -0.921462 54.052410 5.518529 -6.358393 25.957482 -10.198120 14.688814 -55.465709 32.914255 7.280264 -9.633677 3.556054 -0.154004 -57.059516 5.109486 6.358926 -21.427661 -16.869198 -8.460759 45.107570 31.528471 -9.092807 -0.636810 -4.775342 -2.457397 1.651798 -4.346253 -6.303892 -0.938737 2.889257 1.880862 -0.005455 0.004906 -0.003728 -0.798735 -6.022422 -0.322252 0.231745 -2.613714 2.153176 0.965647 3.181982 1.544351 0.009744 -0.009507 0.003968 
9.293699 7.480888 83.158035 -5.207344 -1.921229 -109.338864 -0.252585 -2.428946 0.902679 -0.110738 -1.079530 0.397552 -0.110738 -1.079530 0.397554 -0.082349 -0.809720 0.297964 0.887803 -21.745651 -2.260650 0.966694 -4.201387 -3.840179 11.256387 2.871844 -0.895543 52.229555 3.968805 -6.979042 28.597739 -11.074651 15.664501 -51.670265 31.832206 6.102318 -9.470247 3.686617 -0.339256 -55.320386 4.208380 6.916245 -23.753137 -18.302257 -8.786535 42.621955 30.893393 -8.621939 -0.636130 -4.805743 -2.458669 1.648162 -4.346619 -6.283011 -0.939954 2.885648 1.896257 -0.004908 0.004942 -0.003821 -0.804517 -6.052552 -0.334724 0.244522 -2.621091 2.174095 0.955289 3.190254 1.552924 0.007404 -0.009735 0.003215 
9.291957 7.477709 83.159500 -5.240369 -1.926278 -109.357394 -0.289154 -2.473853 0.953266 -0.126427 -1.099576 0.420436 -0.126427 -1.099576 0.420435 -0.094061 -0.824770 0.315092 0.914135 -21.531092 -2.315120 0.993770 -3.803015 -3.932266 11.119592 2.961004 -0.974332 50.396527 2.716197 -7.417992 31.230476 -11.949632 16.539040 -47.643086 30.585990 4.793588 -9.275596 3.836208 -0.498501 -53.576690 3.428549 7.327178 -25.902833 -19.687735 -9.122512 39.312038 30.218297 -8.058705 -0.644304 -4.828449 -2.455074 1.654138 -4.361915 -6.274192 -0.948343 2.885751 1.902818 -0.002912 0.005864 -0.004613 -0.815812 -6.077566 -0.342670 0.254108 -2.640072 2.182166 0.949071 3.198868 1.574575 0.005316 -0.007177 0.002669 
9.284872 7.478782 83.161919 -5.278602 -1.934173 -109.373937 -0.329499 -2.522366 1.011828 -0.143768 -1.121792 0.446484 -0.143769 -1.121792 0.446482 -0.107003 -0.841450 0.334587 0.945370 -21.310381 -2.374577 1.027916 -3.393178 -4.032104 10.970239 3.100380 -1.092041 48.488910 1.654298 -7.758216 33.786654 -12.957548 17.270024 -44.035848 29.057209 3.488371 -9.070715 3.944635 -0.630474 -51.814877 2.832529 7.613080 -27.838794 -21.057946 -9.477711 35.314004 29.553153 -7.533870 -0.656413 -4.844720 -2.453474 1.662114 -4.392614 -6.265217 -0.953992 2.887549 1.909083 -0.001401 0.007475 -0.005385 -0.827162 -6.101037 -0.359649 0.267675 -2.662575 2.185804 0.940058 3.202347 1.587947 0.003957 -0.004112 0.002951 
